Patient4_TMGait_0pt7_01_left_45_EMG.mot
version=1
nRows=23
nColumns=33
inDegrees=no
endheader
time	1LAddLong	2LGlutMax	3LGlutMed	4LIliopsoas	5LSemiMemb	6LBicFemLong	7LRecFem	8LVastMed	9LVastLat	10LGasMed	11LTibAnt	12lTibPost	13LPeroneusLong	14LSol	15LExtDigLong	16LFlexDigLong	17RAddLong	18RGlutMax	19RGlutMed	20RIliopsoas	21RSemiMemb	22RBicFemLong	23RRecFem	24RVastMed	25RVastLat	26RGasMed	27RTibAnt	28RTibPost	29RPeroneusLong	30RSol	31RExtDigLong	32RFlexDigLong
53.005	0.000763	-0.040741	-0.4657	0.00412	-0.11993	-0.023499	-0.17914	0.005951	0.025787	0.18616	-0.013428	0.057831	0.080872	-0.38391	0.042725	0.038147	-0.002899	-0.47791	0.11215	-0.18662	0.058441	0.29862	0.32135	-0.028076	0.024567	-0.006256	0.14114	0.000763	0.024567	-0.017548	0	-0.005951
53.006	-0.001984	-0.00473	-0.47562	-0.00351	-0.12833	-0.024261	-0.19745	-0.001984	0.077209	0.42038	0.002594	0.047455	0.028381	-0.43854	-0.011444	-0.095978	-0.027924	-0.6807	0.46356	-0.091553	-0.067139	0.38391	0.43671	-0.021515	0.036163	-0.005798	0.072327	-0.001373	-0.030212	-0.053711	0	0.012054
53.007	0.008087	0.034637	-0.46845	-0.000305	-0.027771	-0.075378	-0.16495	-0.012207	0.061646	0.13016	0.012817	0.088043	-0.007324	0.059052	-0.044556	-0.11581	-0.059204	-0.83099	0.12512	-0.085144	0.44495	0.25787	0.21454	0.060425	0.16007	-0.006561	-0.06424	-0.002136	0.030975	-0.057068	-0.000153	-0.001984
53.008	0.013123	0.018311	-0.4541	0.009766	0.13565	-0.095367	-0.16327	-0.004883	0.024567	-0.62882	0.011139	0.042114	-0.02533	0.07843	-0.077515	-0.11017	-0.035248	-0.82748	0.000153	-0.036774	1.0722	0.159	-0.18036	0.12665	0.32532	-0.001373	-0.044556	0.000153	0.027161	-0.064087	0.002441	0.000305
53.009	0.001984	0.03418	-0.56519	0.00473	0.077515	-0.12024	-0.1413	-0.00351	0.028687	-0.64407	0.004578	0.036316	-0.07431	-0.3244	-0.039215	-0.11078	-0.012512	-0.65872	0.40237	0.22492	1.096	0.1593	-0.27802	0.11475	0.39825	-0.002441	0.034332	0.001678	-0.061493	-0.022888	-0.000153	-0.001831
53.01	0	0.059357	-0.56274	0.00824	0.063629	-0.083466	-0.15945	-0.003052	0.003204	-0.55435	0.001221	0.012665	-0.052032	-0.1033	-0.014496	-0.097046	0.049744	-0.63355	0.23193	0.27466	0.82886	0.47333	-0.08728	0.010986	0.24963	-0.001678	0.059509	-0.000763	-0.047302	-0.054474	0.001373	-0.002136
53.011	-0.000153	0.1033	-0.61768	0.010223	0.046539	0.029449	-0.22446	0.004425	-0.018005	-0.32913	0.010529	0.009155	-0.067902	0.092773	-0.009918	-0.059052	0.083313	-0.57754	-0.094757	0.20844	0.60471	0.80093	-0.029755	-0.11993	0.13199	-0.002441	0.044861	-0.001678	0	-0.046387	0.001373	-0.004578
53.012	-0.006866	0.07309	-0.65414	-0.008392	0.026398	0.13336	-0.26169	0.002441	-0.033112	-0.29541	0.013885	0.02121	-0.06958	0.037994	-0.015411	-0.035706	0.06546	-0.46219	-0.16693	0.14114	0.39551	0.77866	-0.15305	-0.16647	0.064392	0.002594	0.11261	-0.000763	-0.022278	-0.06073	-0.005493	-0.003357
53.013	-0.005493	0.079651	-0.68283	-0.005341	-0.019684	0.13779	-0.31494	-0.000916	-0.003662	-0.27664	0.005798	0.033417	-0.13962	0.074158	-0.00351	0.002136	0.018158	-0.36285	-0.20721	0.09201	0.45013	0.90591	-0.31998	0.16174	0.25665	-0.003052	0.18768	0.00473	-0.046539	-0.065918	-0.001221	-0.005188
53.014	-0.016327	0.093079	-0.67673	-0.011292	-0.033417	0.17654	-0.29404	-0.002747	0.056763	-0.32135	0.018463	0.02594	-0.1088	0.31448	0.011902	-0.005493	-0.00061	-0.31937	-0.00885	0.043793	0.5719	1.0345	-0.40039	0.19943	0.33569	-0.002136	0.28381	-0.001526	-0.087738	-0.10178	0	-0.007324
53.015	-0.003357	0.10727	-0.66513	-0.010223	-0.044861	0.1712	-0.31418	-0.00351	0.061035	-0.24292	0.012512	0.002747	-0.090332	0.35599	0.022125	-0.027466	-0.003967	-0.3215	0.078583	0.017395	0.66757	1.024	-0.37613	0.19058	0.15518	-0.007935	0.31204	-0.001678	-0.10162	-0.10101	0.000916	-0.003662
53.016	-0.000153	0.064545	-0.66803	-0.005188	-0.048065	0.13702	-0.33554	-0.001678	0.028381	-0.099335	0.020599	-0.19775	-0.11734	0.42389	-0.002136	0.091705	0.012817	-0.44205	-0.065155	0.005646	0.77576	0.85129	-0.22049	-0.11551	0.084839	-0.008087	0.31265	-0.002594	-0.068817	-0.10178	-0.001984	0.007172
53.017	-0.000153	0.069733	-0.68222	0.014191	-0.044098	0.10056	-0.32227	-0.002747	0.03891	-0.009155	-0.000916	0.39337	-0.016785	0.50964	0.046997	0.066833	0.043793	-0.46906	-0.13428	-0.017395	0.60684	0.70252	-0.072937	-0.38589	0.034637	-0.00824	0.22232	-0.002747	-0.019989	-0.13596	0.000153	-0.001068
53.018	0.004272	0.071564	-0.67581	0.009155	-0.028381	0.021515	-0.32913	-0.007019	0.037689	0.15717	0.011292	0.09491	0.076904	0.59876	0.11887	-0.36438	0.046387	-0.47592	-0.17685	-0.010986	0.37628	0.70999	-0.082855	-0.62607	0.17548	-0.00351	0.19394	-0.005341	0.066071	-0.1445	-0.001678	0.005493
53.019	0.01358	0.066071	-0.6427	0.005798	0.024261	-0.16571	-0.32806	-0.008392	0.037842	0.23346	0.019836	0.093689	0.13092	0.63004	0.06485	0.26962	0.025787	-0.51132	-0.35553	0.002441	0.39124	0.71899	-0.13397	-0.69336	1.0016	-0.013123	-0.19134	-0.004578	0.14572	-0.13153	0.001526	0.00412
53.02	0.012665	0.043182	-0.62714	0.013733	0.06897	-0.20996	-0.31555	-0.001831	0.011597	-0.17334	0.015869	0.15823	0.15579	0.84183	0.025482	0.2179	-0.00946	-0.52139	-0.003815	0.029144	0.30594	0.76431	-0.2211	-0.57953	1.4764	-0.002136	-0.3067	-0.002441	0.077515	-0.13763	0.001831	0.002594
53.021	0.00473	0.027618	-0.62607	0.009613	0.05661	-0.10803	-0.26672	0.003815	0.003815	-0.43182	0.011444	0.34332	0.041809	1.0802	-0.007324	-0.71915	-0.019684	-0.61615	0.26733	-0.087128	0.35431	0.7309	-0.13092	-0.44891	0.90927	0.002136	-0.03891	-0.002441	0.10147	-0.18524	-0.001678	-0.002441
53.022	0.013123	0.03418	-0.62531	0.002289	0.051575	-0.085297	-0.26596	-0.000305	0.023041	-0.35172	-0.002136	-0.45883	0.027161	0.69931	0.028992	0.32989	-0.022125	-0.78659	0.16205	-0.1593	0.44586	0.62286	-0.11978	-0.27649	-0.20966	-0.002289	-0.24262	-0.006409	0.094147	-0.14618	-0.000153	0.000305
53.023	0.00473	0.055237	-0.62653	0.000153	0.012817	-0.004425	-0.28564	-0.000916	0.02655	-0.097351	-0.006409	0.30945	-0.01709	0.0177	0.035553	0.25207	0.019531	-0.99167	0.20172	-0.1535	0.75272	0.56168	-0.004578	-0.22934	-0.93979	0.000916	-0.4509	-0.001526	0.05127	-0.12665	0.002136	-0.002289
53.024	0.01709	0.014954	-0.56549	-0.001373	0.002441	0.048981	-0.28702	-0.007172	0.050659	0.14252	-0.021667	-0.2179	-0.079498	-0.63232	-0.021973	0.085144	0.083313	-1.2199	0.003815	-0.032959	0.59906	0.57495	-0.29373	-0.26932	-1.1673	-0.002136	-0.43274	-0.005646	0.083923	-0.12634	0.003204	-0.009155
53.025	0.014343	0.038147	-0.5542	0.007629	-0.011292	0.017395	-0.31143	-0.006409	0.049438	0.58777	-0.033417	0.14633	-0.05188	-0.71259	-0.052795	0.35812	0.09613	-1.1311	-0.18524	0.067139	0.39475	0.66925	-0.48416	-0.080414	-1.1456	-0.003052	-0.28473	-0.004425	0.027008	-0.12222	0.000763	0.000916
53.026	0.00946	0.02655	-0.54001	0.004883	-0.006561	-0.004578	-0.27359	-0.013275	0.023193	0.61813	-0.031281	-0.39337	0.12985	-0.83847	-0.039978	0.16937	0.055084	-1.0466	-0.32135	0.11353	0.23224	0.82398	-0.35233	-0.03891	-1.0587	0.010834	-0.088043	-0.005188	0.053558	-0.14923	-0.003204	0.010223
53.027	0.005646	0.026093	-0.51804	-0.001831	-0.003662	0.027161	-0.26413	-0.003815	-0.013428	0.44968	-0.019684	-0.021057	0.14954	-0.30334	-0.0354	-0.48721	0.007629	-0.70023	-0.083466	-0.01358	0.1889	1.0078	-0.077667	0.1236	-1.0925	-0.001831	0.014954	-0.002136	0.095673	-0.069275	0.002899	0.002441
